# File created by Blade
# Date/Time:  Tue Jan 27 20:02:37 2015
# Frame Rate: 120.000 fps
#------------------------------------------------------
:FULLY-SPECIFIED
:DEGREES
1583
root 7.116434 32.465722 3.021612 -3.438136 -12.620296 -6.438801
Spine 8.056054 9.222502 4.075092
Head 8.796787 -2.446259 2.370721
LeftShoulder -15.730774 1.331606 28.770477
LeftArm -8.312658 -12.654057 -79.071542
LeftForeArm -14.138943 -0.000000 117.055668
LeftHand 11.742167 0.000000 -7.075351
LeftHandThumb1 -26.253704 0.000000 33.147579
RightShoulder -19.328143 -16.229854 -22.460657
RightArm 10.783586 -23.295739 89.013281
RightForeArm -12.359357 0.000000 11.639936
RightHand 18.031514 -0.000000 7.514061
RightHandThumb1 -24.326973 -0.000000 -32.862282
LeftUpLeg 9.129488 9.852787 -2.018675
LeftLeg -2.149550 -0.000000 0.000000
LeftFoot -18.371580 20.569862 -17.888153
LeftToeBase 21.053821 -0.000000 -0.000000
RightUpLeg -57.339382 -12.217826 15.398353
RightLeg 88.245348 -0.000000 -0.000000
RightFoot 21.842861 -33.867383 11.134571
RightToeBase 19.974993 -0.000000 -0.000000
1584
root 7.158230 32.461882 3.037164 -3.431743 -12.803623 -6.465487
Spine 8.011942 9.333307 4.220658
Head 8.946947 -2.414011 2.169464
LeftShoulder -15.788596 1.436844 28.709069
LeftArm -8.453129 -12.878940 -79.226467
LeftForeArm -14.203221 -0.000000 117.095206
LeftHand 11.781527 -0.000000 -7.259594
LeftHandThumb1 -26.253704 0.000000 33.147579
RightShoulder -19.322473 -16.313522 -22.543012
RightArm 10.747526 -23.287475 88.968238
RightForeArm -12.228921 -0.000000 11.610345
RightHand 18.010613 0.000000 7.697032
RightHandThumb1 -24.326973 -0.000000 -32.862282
LeftUpLeg 9.174894 10.056066 -2.044966
LeftLeg -2.159472 -0.000000 0.000000
LeftFoot -18.461307 20.456711 -17.963554
LeftToeBase 21.414258 -0.000000 -0.000000
RightUpLeg -57.476166 -12.932535 14.943392
RightLeg 88.676567 -0.000000 -0.000000
RightFoot 21.768988 -33.917165 11.056592
RightToeBase 19.460436 -0.000000 -0.000000
1585
root 7.195770 32.459383 3.053261 -3.403835 -12.922915 -6.474180
Spine 7.911650 9.421001 4.301701
Head 9.121146 -2.411696 2.053837
LeftShoulder -15.777856 1.433120 28.690158
LeftArm -8.736168 -13.091144 -79.351574
LeftForeArm -14.087302 -0.000000 117.195759
LeftHand 11.745630 0.000000 -7.254059
LeftHandThumb1 -26.253704 0.000000 33.147579
RightShoulder -19.323136 -16.416614 -22.566454
RightArm 10.685883 -23.228599 88.928956
RightForeArm -12.318397 -0.000000 11.609788
RightHand 18.098041 -0.000000 7.585508
RightHandThumb1 -24.326973 -0.000000 -32.862282
LeftUpLeg 9.178802 10.137975 -2.101331
LeftLeg -2.156467 -0.000000 0.000000
LeftFoot -18.520553 20.422413 -18.016379
LeftToeBase 21.562249 -0.000000 -0.000000
RightUpLeg -57.616583 -13.679061 14.464826
RightLeg 89.095813 -0.000000 -0.000000
RightFoot 21.366674 -34.052255 11.364466
RightToeBase 19.361050 -0.000000 -0.000000
1586
root 7.232225 32.458269 3.071911 -3.398295 -13.040746 -6.521572
Spine 7.834226 9.506828 4.432695
Head 9.315941 -2.443355 1.953929
LeftShoulder -15.763232 1.347958 28.681681
LeftArm -9.098582 -13.291033 -79.498231
LeftForeArm -13.959821 -0.000000 117.343046
LeftHand 11.702068 -0.000000 -7.198137
LeftHandThumb1 -26.253704 0.000000 33.147579
RightShoulder -19.296021 -16.520542 -22.592459
RightArm 10.592672 -23.124813 88.894934
RightForeArm -12.307742 -0.000000 11.649729
RightHand 18.031890 -0.000000 7.764926
RightHandThumb1 -24.326973 -0.000000 -32.862282
LeftUpLeg 9.209565 10.209691 -2.117442
LeftLeg -2.135091 -0.000000 0.000000
LeftFoot -18.622433 20.385889 -18.068508
LeftToeBase 21.810264 -0.000000 -0.000000
RightUpLeg -57.705518 -14.524639 14.057525
RightLeg 89.439611 -0.000000 -0.000000
RightFoot 21.373722 -34.141417 11.030622
RightToeBase 19.332996 -0.000000 -0.000000
1587
root 7.269049 32.455762 3.097698 -3.426595 -13.126513 -6.546446
Spine 7.770888 9.592457 4.541519
Head 9.518147 -2.491342 1.866927
LeftShoulder -15.788787 1.446762 28.677324
LeftArm -9.215983 -13.408010 -79.762766
LeftForeArm -13.778483 -0.000000 117.447331
LeftHand 11.673558 -0.000000 -6.982897
LeftHandThumb1 -26.253704 0.000000 33.147579
RightShoulder -19.306016 -16.592246 -22.625328
RightArm 10.480952 -23.113972 88.857318
RightForeArm -12.297246 -0.000000 11.628502
RightHand 17.979808 -0.000000 7.774292
RightHandThumb1 -24.326973 -0.000000 -32.862282
LeftUpLeg 9.279444 10.233963 -2.156864
LeftLeg -2.114628 -0.000000 0.000000
LeftFoot -18.710338 20.374262 -18.109773
LeftToeBase 22.126081 -0.000000 -0.000000
RightUpLeg -57.730524 -15.274190 13.546148
RightLeg 89.824806 -0.000000 -0.000000
RightFoot 21.100141 -34.245810 11.227918
RightToeBase 19.406708 -0.000000 -0.000000
